<?xml version="1.0" encoding="UTF-8"?><svg enable-background="new 0 0 398.97 398.97" version="1.1" viewBox="0 0 398.97 398.97" xml:space="preserve" xmlns="http://www.w3.org/2000/svg"><path d="m225.09 276.59c-7.101 4.355-16.195 6.754-25.607 6.754s-18.506-2.398-25.607-6.754l-115.93-71.102s-10.464-6.414-10.464 8.116v66 5c0 37.402 68.053 77.723 152 77.723s152-40.32 152-77.723v-5-70.003c0-11.663-7.439-5.964-7.439-5.964l-118.95 72.953z"/><path d="m392.29 148.93c8.908-5.463 8.908-14.403 0-19.867l-176.61-88.315c-8.908-5.463-23.485-5.463-32.393 0l-176.61 88.315c-8.908 5.463-8.908 14.403 0 19.867l176.61 108.32c8.908 5.463 23.485 5.463 32.393 0"/><path d="m384.98 309.48v-119.62s0.083-5.666-3.279-3.795c-2.697 1.501-9.308 5.186-11.637 7.212-2.689 2.337-2.083 7.583-2.083 7.583s0 81.469 0 108.62c0 1.542-1.325 2.278-1.957 2.65-6.105 3.589-10.21 10.214-10.21 17.809 0 11.414 9.252 20.667 20.667 20.667 11.414 0 20.666-9.253 20.666-20.667 0-7.624-4.135-14.27-10.279-17.85-0.611-0.356-1.888-1.068-1.888-2.609z"/></svg>